<svg version="1.1" id="Layer_1" xmlns="http://www.w3.org/2000/svg" xmlns:xlink="http://www.w3.org/1999/xlink" x="0px" y="0px"
	 width="100%" viewBox="0 0 706 168" enable-background="new 0 0 706 168" xml:space="preserve">
<path fill="#FEFEFE" opacity="1.000000" stroke="none" 
	d="
M511.000000,169.000000 
	C340.715210,169.000000 170.930435,169.000000 1.072824,169.000000 
	C1.072824,113.064636 1.072824,57.129158 1.072824,1.096836 
	C236.333313,1.096836 471.666656,1.096836 706.971802,1.096836 
	C706.971802,57.069584 706.971802,113.034798 706.971802,169.000000 
	C641.795776,169.000000 576.647888,169.000000 511.000000,169.000000 
M165.500000,46.999771 
	C115.595970,46.999771 65.691940,46.999771 15.833467,46.999771 
	C15.833467,50.387600 15.833467,52.985100 15.833467,55.713692 
	C241.355133,55.713692 466.600677,55.713692 691.797302,55.713692 
	C691.797302,52.698238 691.797302,49.978230 691.797302,46.999771 
	C516.457153,46.999771 341.478577,46.999771 165.500000,46.999771 
M528.500000,151.996216 
	C582.945740,151.996216 637.391479,151.996216 691.802734,151.996216 
	C691.802734,148.707062 691.802734,145.987305 691.802734,143.386505 
	C466.228790,143.386505 241.011566,143.386505 15.827925,143.386505 
	C15.827925,146.376648 15.827925,148.976089 15.827925,151.996216 
	C186.565277,151.996216 357.032654,151.996216 528.500000,151.996216 
M27.902285,66.894844 
	C24.120687,66.894844 20.339090,66.894844 16.464981,66.894844 
	C16.464981,85.543083 16.464981,103.600327 16.464981,121.642761 
	C20.371773,121.642761 23.932154,121.642761 28.131489,121.642761 
	C28.131489,109.339722 28.131489,97.398315 28.131489,84.030876 
	C32.046207,90.705132 35.131596,96.032349 38.283497,101.319923 
	C41.299213,106.379044 46.900616,106.281929 49.870369,101.147377 
	C52.954514,95.815041 56.018024,90.470772 59.090561,85.131721 
	C59.473511,85.267250 59.856457,85.402779 60.239407,85.538315 
	C60.239407,97.600327 60.239407,109.662346 60.239407,121.768768 
	C64.311920,121.768768 67.907257,121.768768 71.716949,121.768768 
	C71.716949,103.460861 71.716949,85.397858 71.716949,66.899788 
	C69.322296,66.899788 67.153427,67.166374 65.074997,66.846062 
	C60.277676,66.106712 57.532791,67.987373 55.376560,72.352997 
	C52.223511,78.736855 48.312798,84.746490 44.424469,91.432396 
	C40.367336,84.540558 36.645897,78.071396 32.755039,71.705780 
	C31.685053,69.955238 30.108810,68.514130 27.902285,66.894844 
M574.265381,122.029289 
	C575.128052,120.808990 576.687683,119.615814 576.736389,118.363838 
	C576.988708,111.878654 576.752686,105.375740 576.925720,98.885368 
	C576.970398,97.209145 577.401672,94.618141 578.478516,94.072655 
	C581.393005,92.596397 584.877930,91.050102 587.875610,91.456566 
	C589.299744,91.649666 590.927185,96.182091 591.076965,98.827202 
	C591.506531,106.411957 591.228333,114.036804 591.228333,121.627945 
	C595.446655,121.627945 598.992065,121.627945 602.266113,121.627945 
	C602.266113,111.275505 602.820862,101.278656 602.081848,91.378387 
	C601.538940,84.104691 595.797485,80.106735 588.620911,81.413162 
	C583.904114,82.271805 579.451599,84.582306 574.609131,86.341286 
	C568.862366,79.625511 562.373047,79.293144 551.226868,85.697189 
	C549.255737,78.594421 543.714233,83.391983 539.634888,81.472336 
	C539.634888,95.378418 539.634888,108.448135 539.634888,121.700043 
	C543.395996,121.700043 546.943481,121.700043 550.910095,121.700043 
	C550.910095,113.922699 550.817200,106.460602 550.981567,99.004158 
	C551.018188,97.341759 551.554382,95.375061 552.565186,94.112839 
	C554.917053,91.176201 558.592407,89.365639 561.793579,91.311066 
	C563.749084,92.499512 564.954834,96.192398 565.105225,98.839539 
	C565.536072,106.424698 565.256897,114.050186 565.256897,122.021912 
	C568.386047,122.021912 570.859253,122.021912 574.265381,122.029289 
M436.910980,76.454651 
	C429.414642,87.781807 429.850433,103.491234 437.949646,113.897202 
	C444.359375,122.132530 457.589569,125.083641 469.556091,120.947327 
	C477.919373,118.056480 482.914825,110.816429 482.649353,101.411598 
	C479.720947,101.411598 476.723053,101.156998 473.805206,101.529449 
	C472.532043,101.691956 470.680634,102.927284 470.363190,104.038589 
	C468.663849,109.987350 464.479309,112.228134 458.814880,112.393013 
	C452.902924,112.565102 447.994232,110.094299 446.323029,104.425568 
	C444.913483,99.644455 444.323151,94.272530 444.890717,89.336967 
	C445.818848,81.266052 450.264130,77.283340 457.188354,76.446404 
	C463.789825,75.648476 467.590515,78.163376 471.208771,85.685303 
	C475.113617,85.685303 478.984924,85.685303 482.880493,85.685303 
	C481.967072,75.945038 477.270691,70.316208 468.016449,67.532104 
	C455.804413,63.858170 444.357086,66.958878 436.910980,76.454651 
M184.422607,67.693954 
	C168.670761,73.351448 164.840942,90.789963 169.451721,105.856659 
	C173.576706,119.335854 188.747086,125.944305 203.841827,121.478462 
	C213.680695,118.567604 219.347351,110.987000 218.494705,101.404976 
	C215.723877,101.404976 212.865189,101.104538 210.118668,101.529343 
	C208.705765,101.747871 206.713226,103.009804 206.323975,104.228622 
	C204.610489,109.594048 200.979050,111.977318 195.624283,112.326103 
	C189.976074,112.694008 184.869598,110.989128 182.954178,105.568481 
	C181.245453,100.732803 180.278534,95.203300 180.726822,90.134079 
	C181.478348,81.636131 185.874237,77.491379 192.867569,76.511879 
	C199.652878,75.561516 203.283813,77.903641 207.339355,85.829178 
	C211.145752,85.829178 214.936478,85.829178 218.924728,85.829178 
	C218.717941,78.704277 215.659683,73.492615 209.782181,70.068832 
	C202.016937,65.545403 193.705444,65.167191 184.422607,67.693954 
M612.331360,97.504509 
	C612.331360,110.415649 612.331360,123.326782 612.331360,136.296875 
	C616.616882,136.296875 620.035767,136.296875 623.904236,136.296875 
	C623.904236,130.265305 623.904236,124.537117 623.904236,119.748253 
	C628.369751,120.780472 632.609741,122.687973 636.768494,122.524803 
	C644.905823,122.205559 650.158386,116.660843 651.782288,108.300781 
	C653.868103,97.562737 650.469482,86.630066 643.892395,83.146004 
	C642.734436,82.532593 641.426453,82.176147 640.158020,81.801865 
	C634.064026,80.003632 628.891357,82.183144 624.154602,85.997215 
	C622.536377,81.329102 620.480652,80.781387 612.331604,82.699188 
	C612.331604,87.229897 612.331604,91.868362 612.331360,97.504509 
M312.141693,100.500473 
	C312.141693,94.403496 312.141693,88.306519 312.141693,81.401955 
	C307.756561,83.380554 302.381165,78.677589 300.271088,85.440269 
	C291.899445,77.468651 275.927765,80.114021 273.333923,94.584610 
	C272.341583,100.120834 272.878113,106.231544 274.074371,111.788460 
	C275.820862,119.901329 283.069397,124.108482 291.190735,122.396461 
	C294.451630,121.709045 297.479889,119.918335 301.076569,118.439621 
	C301.076569,124.406960 301.076569,130.291138 301.076569,136.260956 
	C304.985565,136.260956 308.389465,136.260956 312.141754,136.260956 
	C312.141754,124.452866 312.141754,112.976624 312.141693,100.500473 
M100.999298,121.743217 
	C103.177498,120.639992 105.355705,119.536774 107.606293,118.396889 
	C107.882996,119.689781 108.112526,120.762253 108.323029,121.745819 
	C111.792725,121.745819 115.058601,121.745819 118.517082,121.745819 
	C118.517082,111.715439 118.754936,101.945297 118.423561,92.194489 
	C118.239082,86.765892 114.743629,82.966110 109.494034,82.263527 
	C104.154823,81.548943 98.536995,81.481682 93.229942,82.322472 
	C86.512672,83.386673 83.749283,87.939072 84.248650,95.441399 
	C87.751122,94.437851 92.150887,97.982796 94.701027,93.170738 
	C96.611305,89.566093 99.420998,88.592995 102.937607,89.287094 
	C106.806030,90.050636 107.633705,92.995796 107.209839,96.940010 
	C105.617790,97.064613 103.981499,97.072937 102.388588,97.340042 
	C97.822365,98.105675 93.128838,98.522858 88.755020,99.920761 
	C83.343079,101.650459 80.927330,106.106331 81.438873,111.558563 
	C81.973030,117.251778 84.861061,121.019669 90.400459,122.012306 
	C93.572105,122.580650 96.947296,122.013123 100.999298,121.743217 
M401.235657,119.934509 
	C405.217346,117.266014 407.671936,113.826607 406.896332,107.453377 
	C403.117432,108.334358 398.230347,108.019592 396.307129,110.254868 
	C393.242645,113.816589 390.142822,114.734589 386.334412,113.796791 
	C381.926117,112.711296 380.200806,109.227249 380.176971,104.078003 
	C389.428101,104.078003 398.451965,104.078003 407.384064,104.078003 
	C408.373169,92.966988 404.191101,85.221832 396.113922,82.390221 
	C381.380219,77.225029 368.972076,85.681343 368.415588,101.266983 
	C368.043945,111.676010 372.897919,119.476929 381.567505,121.719643 
	C387.978516,123.378082 394.416779,123.353424 401.235657,119.934509 
M333.358551,83.078026 
	C329.789825,82.544342 326.221069,82.010658 322.943115,81.520462 
	C322.393036,82.638618 322.130707,82.924156 322.129059,83.211143 
	C322.083374,91.374611 321.962250,99.539505 322.064545,107.701515 
	C322.210968,119.380348 328.710571,124.586891 339.940704,121.877045 
	C342.437988,121.274437 344.661316,119.552391 347.029633,118.383926 
	C347.426208,118.188271 347.919312,118.188255 348.511780,118.068810 
	C348.775543,119.424713 349.011047,120.635437 349.231415,121.768272 
	C352.831909,121.768272 356.106384,121.768272 359.618225,121.768272 
	C359.618225,108.463020 359.618225,95.404465 359.618225,82.288559 
	C355.786163,82.288559 352.252472,82.288559 348.378571,82.288559 
	C348.378571,89.826958 348.396576,96.970490 348.372650,104.113876 
	C348.354858,109.430389 344.635712,113.101883 339.405579,113.030098 
	C335.154114,112.971741 333.593781,110.825500 333.502563,104.482735 
	C333.404327,97.652115 333.460266,90.819283 333.358551,83.078026 
M495.637390,117.910889 
	C503.665314,123.816696 512.403381,124.361496 520.916870,119.826889 
	C529.626831,115.187622 530.802002,106.685036 529.810547,97.791412 
	C528.728455,88.085052 521.708313,81.944077 511.153320,81.178192 
	C500.886475,80.433220 492.361145,85.829803 490.302612,95.076447 
	C488.517639,103.094139 488.992767,110.950752 495.637390,117.910889 
M663.856812,119.797493 
	C669.693359,122.977615 675.896118,123.119423 682.276917,122.127495 
	C689.168701,121.056145 693.501953,117.098892 694.021729,111.224800 
	C694.628967,104.362923 691.930908,100.490578 684.547302,98.011162 
	C681.086304,96.848976 677.445190,96.196869 674.041809,94.902985 
	C672.783630,94.424644 671.973267,92.768616 670.958618,91.649719 
	C672.274170,90.802444 673.546875,89.352722 674.915833,89.255188 
	C676.769714,89.123100 679.834106,89.454597 680.403748,90.583778 
	C683.452820,96.628036 688.278687,93.973038 692.669983,94.105392 
	C692.494202,87.587082 689.964600,83.930374 684.303467,82.324158 
	C677.875916,80.500481 671.431824,80.714607 665.267883,83.449463 
	C658.189026,86.590248 656.949158,96.490013 663.177734,101.170013 
	C665.498718,102.913940 668.465576,103.871628 671.239197,104.919838 
	C674.179199,106.030968 677.333252,106.609558 680.200256,107.863365 
	C681.304993,108.346512 682.567688,110.092400 682.498169,111.182549 
	C682.427856,112.284775 680.993286,113.699196 679.815186,114.259506 
	C675.640015,116.245140 671.504456,114.255135 668.614563,109.212265 
	C665.453186,109.212265 662.327148,109.212265 659.219238,109.212265 
	C658.859802,114.588333 659.185974,115.389381 663.856812,119.797493 
M146.231750,89.705406 
	C145.422638,90.924034 144.613525,92.142662 143.559341,93.730423 
	C141.127686,89.811752 139.687454,85.178589 136.554962,83.117935 
	C133.645752,81.204178 128.930939,82.035255 123.569038,81.518936 
	C127.610161,87.592056 130.505569,92.399521 133.874573,96.848343 
	C136.175858,99.887238 136.035446,102.191109 133.822479,105.189690 
	C129.946930,110.441040 126.474716,115.990051 122.901176,121.313576 
	C131.736572,124.076454 137.246002,121.104927 140.425690,113.305962 
	C141.071777,111.721237 142.316559,110.380608 143.597214,108.459648 
	C148.578995,116.126534 151.623550,126.105492 164.082718,121.087898 
	C160.933502,116.455772 157.981720,111.483009 154.393982,107.021652 
	C151.077393,102.897469 150.822815,99.559395 154.304642,95.352364 
	C157.579880,91.394974 160.091187,86.805351 163.123322,82.214188 
	C155.670914,81.363190 149.154297,80.766251 146.231750,89.705406 
M246.792892,117.537262 
	C246.703308,116.104736 246.613739,114.672203 246.509109,112.998940 
	C240.413940,113.888969 239.350876,110.302231 239.316940,105.793266 
	C239.300644,103.628387 239.308487,101.463310 239.308350,99.298325 
	C239.307709,88.681847 239.308060,78.065369 239.308060,67.288086 
	C235.318451,67.288086 231.795898,67.288086 228.039261,67.288086 
	C228.039261,80.977509 227.975357,94.283920 228.059326,107.589401 
	C228.127441,118.383942 232.709442,122.432419 243.635986,122.085922 
	C246.518661,121.994507 247.023376,120.750999 246.792892,117.537262 
M252.324661,117.273102 
	C252.409317,118.730682 252.493973,120.188263 252.579193,121.655685 
	C256.475098,121.655685 260.027191,121.655685 263.526550,121.655685 
	C263.526550,108.230927 263.526550,95.181427 263.526550,82.161018 
	C259.704590,82.161018 256.273193,82.161018 252.324753,82.161018 
	C252.324753,93.739555 252.324753,105.028595 252.324661,117.273102 
M251.937714,70.783493 
	C251.592545,74.299896 252.922485,76.651566 256.627594,77.029564 
	C259.668396,77.339790 263.165558,77.402557 263.914642,73.709526 
	C264.316772,71.727150 263.463043,68.419617 261.987671,67.351616 
	C258.995941,65.185951 255.394547,65.437370 252.697479,68.664177 
	C252.392197,69.029419 252.256363,69.536285 251.937714,70.783493 
z"/>
<path fill="#595959" opacity="1.000000" stroke="none" 
	d="
M166.000000,46.999771 
	C341.478577,46.999771 516.457153,46.999771 691.797302,46.999771 
	C691.797302,49.978230 691.797302,52.698238 691.797302,55.713692 
	C466.600677,55.713692 241.355133,55.713692 15.833467,55.713692 
	C15.833467,52.985100 15.833467,50.387600 15.833467,46.999771 
	C65.691940,46.999771 115.595970,46.999771 166.000000,46.999771 
z"/>
<path fill="#595959" opacity="1.000000" stroke="none" 
	d="
M528.000000,151.996216 
	C357.032654,151.996216 186.565277,151.996216 15.827925,151.996216 
	C15.827925,148.976089 15.827925,146.376648 15.827925,143.386505 
	C241.011566,143.386505 466.228790,143.386505 691.802734,143.386505 
	C691.802734,145.987305 691.802734,148.707062 691.802734,151.996216 
	C637.391479,151.996216 582.945740,151.996216 528.000000,151.996216 
z"/>
<path fill="#5D5D5D" opacity="1.000000" stroke="none" 
	d="
M28.333578,66.912941 
	C30.108810,68.514130 31.685053,69.955238 32.755039,71.705780 
	C36.645897,78.071396 40.367336,84.540558 44.424469,91.432396 
	C48.312798,84.746490 52.223511,78.736855 55.376560,72.352997 
	C57.532791,67.987373 60.277676,66.106712 65.074997,66.846062 
	C67.153427,67.166374 69.322296,66.899788 71.716949,66.899788 
	C71.716949,85.397858 71.716949,103.460861 71.716949,121.768768 
	C67.907257,121.768768 64.311920,121.768768 60.239407,121.768768 
	C60.239407,109.662346 60.239407,97.600327 60.239407,85.538315 
	C59.856457,85.402779 59.473511,85.267250 59.090561,85.131721 
	C56.018024,90.470772 52.954514,95.815041 49.870369,101.147377 
	C46.900616,106.281929 41.299213,106.379044 38.283497,101.319923 
	C35.131596,96.032349 32.046207,90.705132 28.131489,84.030876 
	C28.131489,97.398315 28.131489,109.339722 28.131489,121.642761 
	C23.932154,121.642761 20.371773,121.642761 16.464981,121.642761 
	C16.464981,103.600327 16.464981,85.543083 16.464981,66.894844 
	C20.339090,66.894844 24.120687,66.894844 28.333578,66.912941 
z"/>
<path fill="#606060" opacity="1.000000" stroke="none" 
	d="
M573.798889,122.025604 
	C570.859253,122.021912 568.386047,122.021912 565.256897,122.021912 
	C565.256897,114.050186 565.536072,106.424698 565.105225,98.839539 
	C564.954834,96.192398 563.749084,92.499512 561.793579,91.311066 
	C558.592407,89.365639 554.917053,91.176201 552.565186,94.112839 
	C551.554382,95.375061 551.018188,97.341759 550.981567,99.004158 
	C550.817200,106.460602 550.910095,113.922699 550.910095,121.700043 
	C546.943481,121.700043 543.395996,121.700043 539.634888,121.700043 
	C539.634888,108.448135 539.634888,95.378418 539.634888,81.472336 
	C543.714233,83.391983 549.255737,78.594421 551.226868,85.697205 
	C562.373047,79.293144 568.862366,79.625511 574.609131,86.341286 
	C579.451599,84.582306 583.904114,82.271805 588.620911,81.413162 
	C595.797485,80.106735 601.538940,84.104691 602.081848,91.378387 
	C602.820862,101.278656 602.266113,111.275505 602.266113,121.627945 
	C598.992065,121.627945 595.446655,121.627945 591.228333,121.627945 
	C591.228333,114.036804 591.506531,106.411957 591.076965,98.827202 
	C590.927185,96.182091 589.299744,91.649666 587.875610,91.456566 
	C584.877930,91.050102 581.393005,92.596397 578.478516,94.072655 
	C577.401672,94.618141 576.970398,97.209145 576.925720,98.885368 
	C576.752686,105.375740 576.988708,111.878654 576.736389,118.363838 
	C576.687683,119.615814 575.128052,120.808990 573.798889,122.025604 
z"/>
<path fill="#5D5D5D" opacity="1.000000" stroke="none" 
	d="
M437.110443,76.152100 
	C444.357086,66.958878 455.804413,63.858170 468.016449,67.532104 
	C477.270691,70.316208 481.967072,75.945038 482.880493,85.685303 
	C478.984924,85.685303 475.113617,85.685303 471.208771,85.685303 
	C467.590515,78.163376 463.789825,75.648476 457.188354,76.446404 
	C450.264130,77.283340 445.818848,81.266052 444.890717,89.336967 
	C444.323151,94.272530 444.913483,99.644455 446.323029,104.425568 
	C447.994232,110.094299 452.902924,112.565102 458.814880,112.393013 
	C464.479309,112.228134 468.663849,109.987350 470.363190,104.038589 
	C470.680634,102.927284 472.532043,101.691956 473.805206,101.529449 
	C476.723053,101.156998 479.720947,101.411598 482.649353,101.411598 
	C482.914825,110.816429 477.919373,118.056480 469.556091,120.947327 
	C457.589569,125.083641 444.359375,122.132530 437.949646,113.897202 
	C429.850433,103.491234 429.414642,87.781807 437.110443,76.152100 
z"/>
<path fill="#5D5D5D" opacity="1.000000" stroke="none" 
	d="
M184.788834,67.525589 
	C193.705444,65.167191 202.016937,65.545403 209.782181,70.068832 
	C215.659683,73.492615 218.717941,78.704277 218.924728,85.829178 
	C214.936478,85.829178 211.145752,85.829178 207.339355,85.829178 
	C203.283813,77.903641 199.652878,75.561516 192.867569,76.511879 
	C185.874237,77.491379 181.478348,81.636131 180.726822,90.134079 
	C180.278534,95.203300 181.245453,100.732803 182.954178,105.568481 
	C184.869598,110.989128 189.976074,112.694008 195.624283,112.326103 
	C200.979050,111.977318 204.610489,109.594048 206.323975,104.228622 
	C206.713226,103.009804 208.705765,101.747871 210.118668,101.529343 
	C212.865189,101.104538 215.723877,101.404976 218.494705,101.404976 
	C219.347351,110.987000 213.680695,118.567604 203.841827,121.478462 
	C188.747086,125.944305 173.576706,119.335854 169.451721,105.856659 
	C164.840942,90.789963 168.670761,73.351448 184.788834,67.525589 
z"/>
<path fill="#606060" opacity="1.000000" stroke="none" 
	d="
M612.331482,97.005669 
	C612.331604,91.868362 612.331604,87.229897 612.331604,82.699188 
	C620.480652,80.781387 622.536377,81.329102 624.154602,85.997215 
	C628.891357,82.183144 634.064026,80.003632 640.158020,81.801865 
	C641.426453,82.176147 642.734436,82.532593 643.892395,83.146004 
	C650.469482,86.630066 653.868103,97.562737 651.782288,108.300781 
	C650.158386,116.660843 644.905823,122.205559 636.768494,122.524803 
	C632.609741,122.687973 628.369751,120.780472 623.904236,119.748253 
	C623.904236,124.537117 623.904236,130.265305 623.904236,136.296875 
	C620.035767,136.296875 616.616882,136.296875 612.331360,136.296875 
	C612.331360,123.326782 612.331360,110.415649 612.331482,97.005669 
M635.449524,113.082077 
	C640.830811,109.063789 642.488892,98.096436 638.411560,92.948639 
	C636.195679,90.150993 633.390930,89.468155 629.969604,90.781265 
	C623.583557,93.232246 623.667419,98.473885 623.847107,103.978233 
	C624.069031,110.779144 627.948242,114.220154 635.449524,113.082077 
z"/>
<path fill="#5C5C5C" opacity="1.000000" stroke="none" 
	d="
M312.141724,101.000427 
	C312.141754,112.976624 312.141754,124.452866 312.141754,136.260956 
	C308.389465,136.260956 304.985565,136.260956 301.076569,136.260956 
	C301.076569,130.291138 301.076569,124.406960 301.076569,118.439621 
	C297.479889,119.918335 294.451630,121.709045 291.190735,122.396461 
	C283.069397,124.108482 275.820862,119.901329 274.074371,111.788460 
	C272.878113,106.231544 272.341583,100.120834 273.333923,94.584610 
	C275.927765,80.114021 291.899445,77.468651 300.271088,85.440269 
	C302.381165,78.677589 307.756561,83.380554 312.141693,81.401955 
	C312.141693,88.306519 312.141693,94.403496 312.141724,101.000427 
M287.447723,91.849434 
	C282.863708,97.144684 283.202759,103.190491 285.292206,109.190033 
	C286.773407,113.443115 290.912079,114.706039 295.132141,112.979813 
	C301.461365,110.390808 301.136444,105.025169 300.961731,99.601204 
	C300.723724,92.211372 294.919037,88.448166 287.447723,91.849434 
z"/>
<path fill="#5F5F5F" opacity="1.000000" stroke="none" 
	d="
M100.615067,121.850098 
	C96.947296,122.013123 93.572105,122.580650 90.400459,122.012306 
	C84.861061,121.019669 81.973030,117.251778 81.438873,111.558563 
	C80.927330,106.106331 83.343079,101.650459 88.755020,99.920761 
	C93.128838,98.522858 97.822365,98.105675 102.388588,97.340042 
	C103.981499,97.072937 105.617790,97.064613 107.209839,96.940010 
	C107.633705,92.995796 106.806030,90.050636 102.937607,89.287094 
	C99.420998,88.592995 96.611305,89.566093 94.701027,93.170738 
	C92.150887,97.982796 87.751122,94.437851 84.248650,95.441399 
	C83.749283,87.939072 86.512672,83.386673 93.229942,82.322472 
	C98.536995,81.481682 104.154823,81.548943 109.494034,82.263527 
	C114.743629,82.966110 118.239082,86.765892 118.423561,92.194489 
	C118.754936,101.945297 118.517082,111.715439 118.517082,121.745819 
	C115.058601,121.745819 111.792725,121.745819 108.323029,121.745819 
	C108.112526,120.762253 107.882996,119.689781 107.606293,118.396889 
	C105.355705,119.536774 103.177498,120.639992 100.615067,121.850098 
M93.291313,108.079567 
	C92.555229,110.784332 92.892899,113.826469 95.884064,113.933861 
	C99.050285,114.047531 102.703468,113.055916 105.326080,111.314995 
	C106.975639,110.219986 107.121361,106.859543 107.941719,104.515404 
	C107.352272,103.936859 106.762817,103.358315 106.173370,102.779770 
	C102.023804,104.326614 97.874237,105.873466 93.291313,108.079567 
z"/>
<path fill="#5D5D5D" opacity="1.000000" stroke="none" 
	d="
M400.879761,120.071671 
	C394.416779,123.353424 387.978516,123.378082 381.567505,121.719643 
	C372.897919,119.476929 368.043945,111.676010 368.415588,101.266983 
	C368.972076,85.681343 381.380219,77.225029 396.113922,82.390221 
	C404.191101,85.221832 408.373169,92.966988 407.384064,104.078003 
	C398.451965,104.078003 389.428101,104.078003 380.176971,104.078003 
	C380.200806,109.227249 381.926117,112.711296 386.334412,113.796791 
	C390.142822,114.734589 393.242645,113.816589 396.307129,110.254868 
	C398.230347,108.019592 403.117432,108.334358 406.896332,107.453377 
	C407.671936,113.826607 405.217346,117.266014 400.879761,120.071671 
M395.007538,92.793503 
	C392.663055,89.582718 389.301239,88.456207 385.889496,89.980133 
	C383.426300,91.080368 381.584808,93.572472 379.466034,95.443810 
	C379.792633,95.876274 380.119232,96.308746 380.445862,96.741211 
	C385.487915,96.741211 390.529999,96.741211 395.957550,96.741211 
	C395.770752,95.586571 395.600220,94.532570 395.007538,92.793503 
z"/>
<path fill="#5E5E5E" opacity="1.000000" stroke="none" 
	d="
M333.403748,83.532715 
	C333.460266,90.819283 333.404327,97.652115 333.502563,104.482735 
	C333.593781,110.825500 335.154114,112.971741 339.405579,113.030098 
	C344.635712,113.101883 348.354858,109.430389 348.372650,104.113876 
	C348.396576,96.970490 348.378571,89.826958 348.378571,82.288559 
	C352.252472,82.288559 355.786163,82.288559 359.618225,82.288559 
	C359.618225,95.404465 359.618225,108.463020 359.618225,121.768272 
	C356.106384,121.768272 352.831909,121.768272 349.231415,121.768272 
	C349.011047,120.635437 348.775543,119.424713 348.511780,118.068810 
	C347.919312,118.188255 347.426208,118.188271 347.029633,118.383926 
	C344.661316,119.552391 342.437988,121.274437 339.940704,121.877045 
	C328.710571,124.586891 322.210968,119.380348 322.064545,107.701515 
	C321.962250,99.539505 322.083374,91.374611 322.129059,83.211143 
	C322.130707,82.924156 322.393036,82.638618 322.943115,81.520462 
	C326.221069,82.010658 329.789825,82.544342 333.403748,83.532715 
z"/>
<path fill="#5D5D5D" opacity="1.000000" stroke="none" 
	d="
M495.358154,117.676689 
	C488.992767,110.950752 488.517639,103.094139 490.302612,95.076447 
	C492.361145,85.829803 500.886475,80.433220 511.153320,81.178192 
	C521.708313,81.944077 528.728455,88.085052 529.810547,97.791412 
	C530.802002,106.685036 529.626831,115.187622 520.916870,119.826889 
	C512.403381,124.361496 503.665314,123.816696 495.358154,117.676689 
M518.442871,99.983383 
	C518.310852,99.163773 518.209473,98.337837 518.041687,97.525612 
	C517.134705,93.133850 514.692505,90.272850 509.994812,90.137512 
	C505.266602,90.001289 502.351227,92.664871 501.782806,97.142357 
	C501.335083,100.668999 501.460754,104.389709 502.068237,107.896645 
	C502.744293,111.799438 505.750580,113.734985 509.663361,113.777832 
	C513.827271,113.823433 516.625183,111.583702 517.742859,107.665993 
	C518.369873,105.468353 518.317017,103.076782 518.442871,99.983383 
z"/>
<path fill="#5D5D5D" opacity="1.000000" stroke="none" 
	d="
M663.549805,119.574722 
	C659.185974,115.389381 658.859802,114.588333 659.219238,109.212265 
	C662.327148,109.212265 665.453186,109.212265 668.614563,109.212265 
	C671.504456,114.255135 675.640015,116.245140 679.815186,114.259506 
	C680.993286,113.699196 682.427856,112.284775 682.498169,111.182549 
	C682.567688,110.092400 681.304993,108.346512 680.200256,107.863365 
	C677.333252,106.609558 674.179199,106.030968 671.239197,104.919838 
	C668.465576,103.871628 665.498718,102.913940 663.177734,101.170013 
	C656.949158,96.490013 658.189026,86.590248 665.267883,83.449463 
	C671.431824,80.714607 677.875916,80.500481 684.303467,82.324158 
	C689.964600,83.930374 692.494202,87.587082 692.669983,94.105392 
	C688.278687,93.973038 683.452820,96.628036 680.403748,90.583778 
	C679.834106,89.454597 676.769714,89.123100 674.915833,89.255188 
	C673.546875,89.352722 672.274170,90.802444 670.958618,91.649712 
	C671.973267,92.768616 672.783630,94.424644 674.041809,94.902985 
	C677.445190,96.196869 681.086304,96.848976 684.547302,98.011162 
	C691.930908,100.490578 694.628967,104.362923 694.021729,111.224800 
	C693.501953,117.098892 689.168701,121.056145 682.276917,122.127495 
	C675.896118,123.119423 669.693359,122.977615 663.549805,119.574722 
z"/>
<path fill="#5C5C5C" opacity="1.000000" stroke="none" 
	d="
M146.445618,89.400047 
	C149.154297,80.766251 155.670914,81.363190 163.123322,82.214188 
	C160.091187,86.805351 157.579880,91.394974 154.304642,95.352364 
	C150.822815,99.559395 151.077393,102.897469 154.393982,107.021652 
	C157.981720,111.483009 160.933502,116.455772 164.082718,121.087898 
	C151.623550,126.105492 148.578995,116.126534 143.597214,108.459648 
	C142.316559,110.380608 141.071777,111.721237 140.425690,113.305962 
	C137.246002,121.104927 131.736572,124.076454 122.901176,121.313576 
	C126.474716,115.990051 129.946930,110.441040 133.822479,105.189690 
	C136.035446,102.191109 136.175858,99.887238 133.874573,96.848343 
	C130.505569,92.399521 127.610161,87.592056 123.569038,81.518936 
	C128.930939,82.035255 133.645752,81.204178 136.554962,83.117935 
	C139.687454,85.178589 141.127686,89.811752 143.559341,93.730423 
	C144.613525,92.142662 145.422638,90.924034 146.445618,89.400047 
z"/>
<path fill="#5C5C5C" opacity="1.000000" stroke="none" 
	d="
M246.792542,117.980957 
	C247.023376,120.750999 246.518661,121.994507 243.635986,122.085922 
	C232.709442,122.432419 228.127441,118.383942 228.059326,107.589401 
	C227.975357,94.283920 228.039261,80.977509 228.039261,67.288086 
	C231.795898,67.288086 235.318451,67.288086 239.308060,67.288086 
	C239.308060,78.065369 239.307709,88.681847 239.308350,99.298325 
	C239.308487,101.463310 239.300644,103.628387 239.316940,105.793266 
	C239.350876,110.302231 240.413940,113.888969 246.509109,112.998940 
	C246.613739,114.672203 246.703308,116.104736 246.792542,117.980957 
z"/>
<path fill="#626262" opacity="1.000000" stroke="none" 
	d="
M252.324707,116.795364 
	C252.324753,105.028595 252.324753,93.739555 252.324753,82.161018 
	C256.273193,82.161018 259.704590,82.161018 263.526550,82.161018 
	C263.526550,95.181427 263.526550,108.230927 263.526550,121.655685 
	C260.027191,121.655685 256.475098,121.655685 252.579193,121.655685 
	C252.493973,120.188263 252.409317,118.730682 252.324707,116.795364 
z"/>
<path fill="#606060" opacity="1.000000" stroke="none" 
	d="
M251.989838,70.380486 
	C252.256363,69.536285 252.392197,69.029419 252.697479,68.664177 
	C255.394547,65.437370 258.995941,65.185951 261.987671,67.351616 
	C263.463043,68.419617 264.316772,71.727150 263.914642,73.709526 
	C263.165558,77.402557 259.668396,77.339790 256.627594,77.029564 
	C252.922485,76.651566 251.592545,74.299896 251.989838,70.380486 
z"/>
<path fill="#FAFAFA" opacity="1.000000" stroke="none" 
	d="
M635.083618,113.186630 
	C627.948242,114.220154 624.069031,110.779144 623.847107,103.978233 
	C623.667419,98.473885 623.583557,93.232246 629.969604,90.781265 
	C633.390930,89.468155 636.195679,90.150993 638.411560,92.948639 
	C642.488892,98.096436 640.830811,109.063789 635.083618,113.186630 
z"/>
<path fill="#FAFAFA" opacity="1.000000" stroke="none" 
	d="
M287.737061,91.586838 
	C294.919037,88.448166 300.723724,92.211372 300.961731,99.601204 
	C301.136444,105.025169 301.461365,110.390808 295.132141,112.979813 
	C290.912079,114.706039 286.773407,113.443115 285.292206,109.190033 
	C283.202759,103.190491 282.863708,97.144684 287.737061,91.586838 
z"/>
<path fill="#F7F7F7" opacity="1.000000" stroke="none" 
	d="
M93.507996,107.749939 
	C97.874237,105.873466 102.023804,104.326614 106.173370,102.779770 
	C106.762817,103.358315 107.352272,103.936859 107.941719,104.515404 
	C107.121361,106.859543 106.975639,110.219986 105.326080,111.314995 
	C102.703468,113.055916 99.050285,114.047531 95.884064,113.933861 
	C92.892899,113.826469 92.555229,110.784332 93.507996,107.749939 
z"/>
<path fill="#F7F7F7" opacity="1.000000" stroke="none" 
	d="
M395.218628,93.136032 
	C395.600220,94.532570 395.770752,95.586571 395.957550,96.741211 
	C390.529999,96.741211 385.487915,96.741211 380.445862,96.741211 
	C380.119232,96.308746 379.792633,95.876274 379.466034,95.443810 
	C381.584808,93.572472 383.426300,91.080368 385.889496,89.980133 
	C389.301239,88.456207 392.663055,89.582718 395.218628,93.136032 
z"/>
<path fill="#FAFAFA" opacity="1.000000" stroke="none" 
	d="
M518.506714,100.377991 
	C518.317017,103.076782 518.369873,105.468353 517.742859,107.665993 
	C516.625183,111.583702 513.827271,113.823433 509.663361,113.777832 
	C505.750580,113.734985 502.744293,111.799438 502.068237,107.896645 
	C501.460754,104.389709 501.335083,100.668999 501.782806,97.142357 
	C502.351227,92.664871 505.266602,90.001289 509.994812,90.137512 
	C514.692505,90.272850 517.134705,93.133850 518.041687,97.525612 
	C518.209473,98.337837 518.310852,99.163773 518.506714,100.377991 
z"/>
</svg>