<svg version="1.1" id="Layer_1" xmlns="http://www.w3.org/2000/svg" xmlns:xlink="http://www.w3.org/1999/xlink" x="0px" y="0px"
	 width="100%" viewBox="0 0 705 169" enable-background="new 0 0 705 169" xml:space="preserve">
<path fill="#010101" opacity="1.000000" stroke="none" 
	d="
M513.000000,170.000000 
	C342.048737,170.000000 171.597473,170.000000 1.073110,170.000000 
	C1.073110,113.731590 1.073110,57.463062 1.073110,1.097265 
	C235.999985,1.097265 470.999969,1.097265 705.972290,1.097265 
	C705.972290,57.402534 705.972290,113.701279 705.972290,170.000000 
	C641.796326,170.000000 577.648193,170.000000 513.000000,170.000000 
M171.500000,45.001518 
	C119.550362,45.001518 67.600716,45.001518 15.779737,45.001518 
	C15.779737,48.254848 15.779737,51.000225 15.779737,53.626282 
	C241.408783,53.626282 466.743256,53.626282 691.969238,53.626282 
	C691.969238,50.634117 691.969238,48.017879 691.969238,45.001518 
	C518.681458,45.001518 345.590729,45.001518 171.500000,45.001518 
M97.500000,149.999100 
	C295.692688,149.999100 493.885376,149.999100 691.969604,149.999100 
	C691.969604,146.635101 691.969604,144.018738 691.969604,141.253448 
	C466.399384,141.253448 241.026108,141.253448 15.779211,141.253448 
	C15.779211,144.257507 15.779211,147.000748 15.779211,149.999100 
	C42.881420,149.999100 69.690712,149.999100 97.500000,149.999100 
M64.628632,64.901344 
	C60.032528,64.048447 57.517479,66.075867 55.463631,70.236717 
	C52.285667,76.674919 48.322735,82.725655 44.394512,89.451157 
	C39.922997,81.824059 35.879662,74.773788 31.642075,67.842270 
	C30.888809,66.610123 29.395468,65.157234 28.128073,65.038094 
	C24.236748,64.672310 20.289173,64.904945 16.443306,64.904945 
	C16.443306,83.646187 16.443306,101.703728 16.443306,119.699112 
	C20.349669,119.699112 23.928980,119.699112 27.949600,119.699112 
	C27.949600,107.378746 27.949600,95.361855 27.949600,81.801720 
	C31.835014,88.360809 34.915970,93.579781 38.014748,98.788155 
	C41.373684,104.433800 46.766258,104.454826 50.004803,98.860176 
	C53.070702,93.563782 56.160477,88.281204 59.239754,82.992554 
	C59.563133,83.123894 59.886509,83.255226 60.209885,83.386566 
	C60.209885,95.469986 60.209885,107.553406 60.209885,119.720329 
	C64.277016,119.720329 68.000656,119.720329 71.730392,119.720329 
	C71.730392,101.362556 71.730392,83.295662 71.730392,64.901398 
	C69.505646,64.901398 67.538551,64.901398 64.628632,64.901344 
M602.828735,113.380341 
	C602.639954,105.407875 602.936035,97.385376 602.120117,89.477615 
	C601.368103,82.189041 595.918823,78.160957 588.746155,79.419456 
	C584.025696,80.247696 579.562988,82.544601 574.618286,84.315109 
	C568.756592,77.613197 562.213684,77.279930 551.022461,83.902397 
	C550.618225,82.556793 550.220947,81.234428 549.909241,80.196846 
	C546.233582,80.196846 542.977600,80.196846 539.387756,80.196846 
	C539.387756,86.971191 539.387695,93.436485 539.387695,99.901787 
	C539.387695,106.515236 539.387756,113.128693 539.387756,119.684036 
	C543.515808,119.684036 547.083069,119.684036 550.903442,119.684036 
	C550.903442,111.881996 550.835571,104.414833 550.959717,96.950874 
	C550.985168,95.423096 551.268494,93.078499 552.231018,92.541786 
	C555.089661,90.947945 558.418152,88.980988 561.429565,89.179787 
	C565.333923,89.437515 565.211121,93.628769 565.252563,96.755127 
	C565.353455,104.367462 565.285400,111.982040 565.285400,119.739693 
	C569.339722,119.739693 572.897034,119.739693 576.845520,119.739693 
	C576.845520,111.842522 576.717834,104.219025 576.941833,96.605888 
	C576.993286,94.858704 577.786133,92.298653 579.056946,91.597542 
	C581.623962,90.181259 585.108887,88.614151 587.532410,89.352089 
	C589.327087,89.898544 590.921875,93.937492 591.074036,96.511147 
	C591.531311,104.247284 591.238770,112.027748 591.238770,119.649635 
	C595.475220,119.649635 599.039368,119.649635 602.829651,119.649635 
	C602.829651,117.634506 602.829651,115.989319 602.828735,113.380341 
M441.857697,69.298676 
	C431.334625,77.681442 428.372223,96.531822 435.451660,108.380600 
	C443.522644,121.888962 459.142487,122.931366 471.032837,118.352699 
	C478.669495,115.412033 482.886475,108.238853 482.695984,99.680237 
	C478.932770,99.680237 475.161926,99.680237 471.352234,99.680237 
	C471.091034,100.129646 470.721130,100.525787 470.615906,100.982857 
	C468.855133,108.631508 463.972107,110.161781 458.966797,110.452972 
	C452.898285,110.806023 447.771027,107.810913 446.026733,101.692154 
	C444.749451,97.211487 444.217377,92.176994 444.812592,87.578247 
	C445.897675,79.194550 450.202179,75.260460 457.359100,74.367355 
	C463.719635,73.573639 467.612610,76.225304 471.210785,83.736053 
	C475.151154,83.736053 479.039459,83.736053 483.006470,83.736053 
	C482.654083,77.192490 480.023315,72.244423 474.894745,68.721298 
	C465.746948,62.437126 451.739227,62.532227 441.857697,69.298676 
M191.080261,110.058807 
	C182.512787,107.027565 178.427597,98.245155 180.624756,87.581497 
	C182.337631,79.268387 186.199814,75.260490 193.358414,74.367493 
	C199.720398,73.573868 203.582397,76.206528 207.209106,83.719818 
	C211.168839,83.719818 215.054306,83.719818 220.206818,83.719818 
	C218.085251,79.292877 216.998199,75.073486 214.462204,72.082748 
	C205.246155,61.214180 183.906586,61.442673 174.538895,72.120483 
	C166.175964,81.653023 165.258942,99.371765 172.581345,109.944572 
	C179.557098,120.016808 193.176422,123.622368 206.130875,118.826416 
	C214.020752,115.905449 218.927475,108.507935 218.683243,99.673279 
	C214.914917,99.673279 211.138718,99.673279 207.399704,99.673279 
	C203.176804,109.260933 200.576263,111.012718 191.080261,110.058807 
M612.379272,115.498718 
	C612.379272,121.752357 612.379272,128.005997 612.379272,134.278046 
	C616.591675,134.278046 620.028381,134.278046 623.855225,134.278046 
	C623.855225,128.266693 623.855225,122.526237 623.855225,116.561584 
	C634.775452,123.084511 645.428223,121.339523 649.738342,112.063225 
	C653.478149,104.014221 653.329407,95.506371 649.620239,87.402016 
	C646.845032,81.338394 640.491699,78.121658 633.908997,79.462830 
	C630.463989,80.164742 627.255920,82.029228 623.817993,83.418297 
	C623.563477,82.613724 623.138794,81.271095 622.811035,80.235001 
	C619.167175,80.235001 615.921814,80.235001 612.379272,80.235001 
	C612.379272,91.886871 612.379272,103.192986 612.379272,115.498718 
M312.146820,99.500366 
	C312.146820,93.065498 312.146820,86.630630 312.146820,80.072937 
	C308.199615,80.072937 304.756805,80.072937 301.288849,80.072937 
	C301.098328,81.328979 300.934021,82.412361 300.756653,83.581917 
	C288.624390,74.179512 275.181274,80.695023 273.311951,92.566925 
	C272.433563,98.145332 272.885559,104.210358 274.069641,109.770576 
	C275.790222,117.850037 283.003113,122.069397 291.144409,120.386909 
	C294.505188,119.692368 297.629883,117.855125 301.239929,116.383507 
	C301.239929,122.447304 301.239929,128.355072 301.239929,134.225494 
	C305.041016,134.225494 308.455322,134.225494 312.146484,134.225494 
	C312.146484,122.779556 312.146484,111.639870 312.146820,99.500366 
M116.280800,120.013794 
	C117.124107,119.305054 118.699066,118.597435 118.700150,117.887421 
	C118.714561,108.411079 118.751755,98.921745 118.259361,89.462921 
	C117.997192,84.426796 114.483612,80.937576 109.716263,80.316444 
	C104.204353,79.598305 98.440567,79.608475 92.935333,80.374550 
	C87.145309,81.180260 82.392960,87.223015 84.429016,93.395050 
	C86.317230,93.395050 88.343483,93.642807 90.272720,93.316689 
	C91.817078,93.055618 94.094719,92.469589 94.570633,91.381866 
	C96.351204,87.312248 99.495430,86.565369 103.147141,87.315674 
	C107.016876,88.110786 107.609047,91.235046 107.405800,94.449104 
	C101.250183,95.518127 95.115028,96.127975 89.251389,97.730995 
	C83.473518,99.310570 81.005592,103.752655 81.517433,109.508369 
	C82.048950,115.485367 85.053368,118.984550 90.839645,120.213181 
	C96.520477,121.419418 101.721832,120.338028 106.371796,116.773300 
	C106.710304,116.513786 107.250298,116.517090 107.713821,116.393623 
	C107.900444,117.620621 108.067894,118.721588 108.264572,120.014732 
	C110.713623,120.014732 113.034447,120.014732 116.280800,120.013794 
M390.563721,102.268234 
	C396.160950,102.268234 401.758179,102.268234 407.267517,102.268234 
	C409.372742,85.162712 396.322815,74.980278 380.298706,80.544785 
	C370.481476,83.953903 365.961273,95.588966 369.537018,107.712479 
	C371.459198,114.229553 375.634064,118.500107 382.098480,119.848572 
	C389.897339,121.475395 397.909973,121.760269 404.032867,115.442993 
	C406.071198,113.339973 406.700195,109.870964 408.339325,106.209030 
	C404.708679,106.209030 402.533295,105.978294 400.436829,106.285728 
	C398.900177,106.511063 396.695740,107.037682 396.122162,108.130074 
	C393.703491,112.736374 389.729584,112.834625 385.854401,111.641136 
	C381.696289,110.360535 379.902313,106.931984 380.309326,102.513412 
	C380.954651,102.398087 381.279785,102.291603 381.605652,102.289383 
	C384.266388,102.271332 386.927216,102.272736 390.563721,102.268234 
M340.275482,111.019150 
	C334.960968,110.610634 333.562042,109.113594 333.447632,102.908401 
	C333.307678,95.320572 333.414276,87.728180 333.414276,80.104126 
	C329.330597,80.104126 325.891724,80.104126 322.532013,80.104126 
	C322.316925,80.599861 322.082764,80.888702 322.081757,81.178375 
	C322.053284,89.336388 321.970795,97.495308 322.058044,105.652359 
	C322.182861,117.321968 328.634613,122.570114 339.865112,119.891411 
	C342.498962,119.263191 344.825287,117.364578 347.314545,116.092339 
	C347.714355,115.888000 348.227020,115.904388 348.682190,115.819725 
	C348.827148,117.226730 348.960419,118.520195 349.084839,119.727768 
	C352.728699,119.727768 356.153046,119.727768 359.648987,119.727768 
	C359.648987,106.378197 359.648987,93.314270 359.648987,80.236099 
	C355.825806,80.236099 352.278046,80.236099 348.424622,80.236099 
	C348.424622,87.379181 348.091095,94.205986 348.526459,100.983398 
	C348.898224,106.770218 346.161255,109.565216 340.275482,111.019150 
M493.161560,86.791153 
	C491.970062,90.692070 490.119141,94.528008 489.726959,98.507706 
	C488.955658,106.333839 490.890625,113.663910 498.317810,117.718658 
	C506.089966,121.961700 514.385071,122.015244 521.974670,117.164993 
	C529.903259,112.098068 530.861694,103.945946 529.746704,95.523445 
	C528.725586,87.809738 524.452332,82.174103 516.754028,80.198067 
	C508.109283,77.979095 499.912018,78.765610 493.161560,86.791153 
M671.606079,91.794952 
	C671.937744,90.459335 671.882874,88.298225 672.667847,87.930687 
	C676.103149,86.322113 679.346863,86.642700 681.910095,90.040169 
	C682.701721,91.089409 684.162659,92.044975 685.435791,92.230873 
	C687.813782,92.578102 690.278625,92.330650 692.719604,92.330650 
	C692.422424,85.064919 689.368774,81.010963 682.901978,80.069839 
	C678.693909,79.457428 674.263245,79.431480 670.050598,80.007637 
	C663.234131,80.939888 659.724670,84.537460 659.259277,89.904320 
	C658.770935,95.535904 661.771118,99.649849 668.344360,101.970634 
	C672.092896,103.294136 676.030884,104.108833 679.710754,105.583778 
	C680.976013,106.090927 682.700256,108.153618 682.470154,109.065285 
	C682.114990,110.472115 680.435242,112.200027 679.006104,112.561539 
	C674.053040,113.814491 670.330872,111.924271 668.626038,107.000046 
	C666.811340,107.000046 665.313782,107.000046 663.816162,107.000046 
	C662.200073,107.000046 660.584045,107.000046 658.968140,107.000046 
	C659.031616,114.703133 662.580078,119.070251 669.804749,119.961662 
	C673.879761,120.464470 678.096741,120.434280 682.190063,120.033997 
	C689.087830,119.359482 693.484863,115.116135 694.017517,109.302376 
	C694.647949,102.421089 691.928772,98.497429 684.639465,96.032021 
	C680.561768,94.652855 676.422180,93.456566 671.606079,91.794952 
M123.433502,119.888603 
	C131.542511,121.549019 137.496536,119.127563 140.624496,111.024261 
	C141.205078,109.520180 142.376160,108.244034 143.527328,106.474335 
	C148.702942,113.614883 151.247986,124.606819 164.034729,119.077362 
	C160.495087,113.830566 157.033310,108.225029 153.066315,103.003319 
	C150.819351,100.045654 151.166595,97.926353 153.173813,95.150978 
	C156.624374,90.379921 159.737717,85.364967 163.002731,80.437096 
	C154.671829,78.296333 148.688797,80.137878 145.806824,88.432716 
	C145.423813,89.535065 144.384232,90.409294 143.463074,91.636482 
	C141.051529,87.718010 139.629959,83.033798 136.490936,80.998871 
	C133.558289,79.097748 128.802689,80.008667 123.613144,79.579689 
	C127.527145,85.448051 130.386719,90.279678 133.803848,94.678139 
	C136.314774,97.910156 136.010025,100.298714 133.682663,103.429375 
	C129.926697,108.481758 126.632072,113.877113 123.433502,119.888603 
M228.256882,109.777130 
	C230.580322,118.608482 236.548996,121.710716 246.779861,119.226700 
	C246.779861,117.304436 246.799301,115.323456 246.768707,113.343254 
	C246.758774,112.699730 246.618073,112.058235 246.543411,111.465294 
	C239.615601,110.283150 239.376556,110.050720 239.351639,102.698708 
	C239.309448,90.252098 239.340057,77.805244 239.340057,65.208984 
	C235.394562,65.208984 231.847488,65.208984 228.200897,65.208984 
	C228.200897,79.977661 228.200897,94.440392 228.256882,109.777130 
M263.910919,105.493835 
	C263.910919,97.071045 263.910919,88.648254 263.910919,80.201569 
	C259.805573,80.201569 256.252472,80.201569 252.651276,80.201569 
	C252.651276,93.593529 252.651276,106.652534 252.651276,119.699791 
	C256.501526,119.699791 260.064056,119.699791 263.910919,119.699791 
	C263.910919,115.082039 263.910919,110.785934 263.910919,105.493835 
M254.528275,64.952560 
	C251.227814,67.123581 250.574722,70.658546 253.087311,72.896736 
	C254.953217,74.558876 258.918762,74.899368 261.546661,74.235542 
	C262.868073,73.901749 264.419556,69.709785 263.894470,67.806854 
	C262.723907,63.564785 258.909485,63.741737 254.528275,64.952560 
z"/>
<path fill="#FFFFFF" opacity="1.000000" stroke="none" 
	d="
M172.000000,45.001518 
	C345.590729,45.001518 518.681458,45.001518 691.969238,45.001518 
	C691.969238,48.017879 691.969238,50.634117 691.969238,53.626282 
	C466.743256,53.626282 241.408783,53.626282 15.779737,53.626282 
	C15.779737,51.000225 15.779737,48.254848 15.779737,45.001518 
	C67.600716,45.001518 119.550362,45.001518 172.000000,45.001518 
z"/>
<path fill="#FFFFFF" opacity="1.000000" stroke="none" 
	d="
M97.000000,149.999100 
	C69.690712,149.999100 42.881420,149.999100 15.779211,149.999100 
	C15.779211,147.000748 15.779211,144.257507 15.779211,141.253448 
	C241.026108,141.253448 466.399384,141.253448 691.969604,141.253448 
	C691.969604,144.018738 691.969604,146.635101 691.969604,149.999100 
	C493.885376,149.999100 295.692688,149.999100 97.000000,149.999100 
z"/>
<path fill="#F8F8F8" opacity="1.000000" stroke="none" 
	d="
M65.100044,64.901367 
	C67.538551,64.901398 69.505646,64.901398 71.730392,64.901398 
	C71.730392,83.295662 71.730392,101.362556 71.730392,119.720329 
	C68.000656,119.720329 64.277016,119.720329 60.209885,119.720329 
	C60.209885,107.553406 60.209885,95.469986 60.209885,83.386566 
	C59.886509,83.255226 59.563133,83.123894 59.239754,82.992554 
	C56.160477,88.281204 53.070702,93.563782 50.004803,98.860176 
	C46.766258,104.454826 41.373684,104.433800 38.014748,98.788155 
	C34.915970,93.579781 31.835014,88.360809 27.949600,81.801720 
	C27.949600,95.361855 27.949600,107.378746 27.949600,119.699112 
	C23.928980,119.699112 20.349669,119.699112 16.443306,119.699112 
	C16.443306,101.703728 16.443306,83.646187 16.443306,64.904945 
	C20.289173,64.904945 24.236748,64.672310 28.128073,65.038094 
	C29.395468,65.157234 30.888809,66.610123 31.642075,67.842270 
	C35.879662,74.773788 39.922997,81.824059 44.394512,89.451157 
	C48.322735,82.725655 52.285667,76.674919 55.463631,70.236717 
	C57.517479,66.075867 60.032528,64.048447 65.100044,64.901367 
z"/>
<path fill="#F3F3F3" opacity="1.000000" stroke="none" 
	d="
M602.829224,113.862228 
	C602.829651,115.989319 602.829651,117.634506 602.829651,119.649635 
	C599.039368,119.649635 595.475220,119.649635 591.238770,119.649635 
	C591.238770,112.027748 591.531311,104.247284 591.074036,96.511147 
	C590.921875,93.937492 589.327087,89.898544 587.532410,89.352089 
	C585.108887,88.614151 581.623962,90.181259 579.056946,91.597542 
	C577.786133,92.298653 576.993286,94.858704 576.941833,96.605888 
	C576.717834,104.219025 576.845520,111.842522 576.845520,119.739693 
	C572.897034,119.739693 569.339722,119.739693 565.285400,119.739693 
	C565.285400,111.982040 565.353455,104.367462 565.252563,96.755127 
	C565.211121,93.628769 565.333923,89.437515 561.429565,89.179787 
	C558.418152,88.980988 555.089661,90.947945 552.231018,92.541786 
	C551.268494,93.078499 550.985168,95.423096 550.959717,96.950874 
	C550.835571,104.414833 550.903442,111.881996 550.903442,119.684036 
	C547.083069,119.684036 543.515808,119.684036 539.387756,119.684036 
	C539.387756,113.128693 539.387695,106.515236 539.387695,99.901787 
	C539.387695,93.436485 539.387756,86.971191 539.387756,80.196846 
	C542.977600,80.196846 546.233582,80.196846 549.909241,80.196846 
	C550.220947,81.234428 550.618225,82.556793 551.022461,83.902397 
	C562.213684,77.279930 568.756592,77.613197 574.618286,84.315109 
	C579.562988,82.544601 584.025696,80.247696 588.746155,79.419456 
	C595.918823,78.160957 601.368103,82.189041 602.120117,89.477615 
	C602.936035,97.385376 602.639954,105.407875 602.829224,113.862228 
z"/>
<path fill="#F7F7F7" opacity="1.000000" stroke="none" 
	d="
M442.155060,69.086197 
	C451.739227,62.532227 465.746948,62.437126 474.894745,68.721298 
	C480.023315,72.244423 482.654083,77.192490 483.006470,83.736053 
	C479.039459,83.736053 475.151154,83.736053 471.210785,83.736053 
	C467.612610,76.225304 463.719635,73.573639 457.359100,74.367355 
	C450.202179,75.260460 445.897675,79.194550 444.812592,87.578247 
	C444.217377,92.176994 444.749451,97.211487 446.026733,101.692154 
	C447.771027,107.810913 452.898285,110.806023 458.966797,110.452972 
	C463.972107,110.161781 468.855133,108.631508 470.615906,100.982857 
	C470.721130,100.525787 471.091034,100.129646 471.352234,99.680237 
	C475.161926,99.680237 478.932770,99.680237 482.695984,99.680237 
	C482.886475,108.238853 478.669495,115.412033 471.032837,118.352699 
	C459.142487,122.931366 443.522644,121.888962 435.451660,108.380600 
	C428.372223,96.531822 431.334625,77.681442 442.155060,69.086197 
z"/>
<path fill="#F7F7F7" opacity="1.000000" stroke="none" 
	d="
M191.509476,110.105042 
	C200.576263,111.012718 203.176804,109.260933 207.399704,99.673279 
	C211.138718,99.673279 214.914917,99.673279 218.683243,99.673279 
	C218.927475,108.507935 214.020752,115.905449 206.130875,118.826416 
	C193.176422,123.622368 179.557098,120.016808 172.581345,109.944572 
	C165.258942,99.371765 166.175964,81.653023 174.538895,72.120483 
	C183.906586,61.442673 205.246155,61.214180 214.462204,72.082748 
	C216.998199,75.073486 218.085251,79.292877 220.206818,83.719818 
	C215.054306,83.719818 211.168839,83.719818 207.209106,83.719818 
	C203.582397,76.206528 199.720398,73.573868 193.358414,74.367493 
	C186.199814,75.260490 182.337631,79.268387 180.624756,87.581497 
	C178.427597,98.245155 182.512787,107.027565 191.509476,110.105042 
z"/>
<path fill="#F4F4F4" opacity="1.000000" stroke="none" 
	d="
M612.379272,114.998909 
	C612.379272,103.192986 612.379272,91.886871 612.379272,80.235001 
	C615.921814,80.235001 619.167175,80.235001 622.811035,80.235001 
	C623.138794,81.271095 623.563477,82.613724 623.817993,83.418297 
	C627.255920,82.029228 630.463989,80.164742 633.908997,79.462830 
	C640.491699,78.121658 646.845032,81.338394 649.620239,87.402016 
	C653.329407,95.506371 653.478149,104.014221 649.738342,112.063225 
	C645.428223,121.339523 634.775452,123.084511 623.855225,116.561584 
	C623.855225,122.526237 623.855225,128.266693 623.855225,134.278046 
	C620.028381,134.278046 616.591675,134.278046 612.379272,134.278046 
	C612.379272,128.005997 612.379272,121.752357 612.379272,114.998909 
M623.886658,101.358475 
	C623.887390,102.189636 623.815857,103.028252 623.900818,103.850723 
	C624.382385,108.514618 627.412292,111.027763 631.639648,111.630478 
	C636.106873,112.267403 639.087952,109.528946 639.788208,105.351334 
	C640.405273,101.669952 640.472412,97.701759 639.793457,94.043800 
	C638.794861,88.664314 633.895264,86.760201 629.036316,89.170631 
	C624.217224,91.561310 623.311707,95.655952 623.886658,101.358475 
z"/>
<path fill="#FAFAFA" opacity="1.000000" stroke="none" 
	d="
M312.146667,100.000275 
	C312.146484,111.639870 312.146484,122.779556 312.146484,134.225494 
	C308.455322,134.225494 305.041016,134.225494 301.239929,134.225494 
	C301.239929,128.355072 301.239929,122.447304 301.239929,116.383507 
	C297.629883,117.855125 294.505188,119.692368 291.144409,120.386909 
	C283.003113,122.069397 275.790222,117.850037 274.069641,109.770576 
	C272.885559,104.210358 272.433563,98.145332 273.311951,92.566925 
	C275.181274,80.695023 288.624390,74.179512 300.756653,83.581917 
	C300.934021,82.412361 301.098328,81.328979 301.288849,80.072937 
	C304.756805,80.072937 308.199615,80.072937 312.146820,80.072937 
	C312.146820,86.630630 312.146820,93.065498 312.146667,100.000275 
M299.463562,107.627838 
	C299.955200,104.105019 300.737823,100.592606 300.864441,97.056717 
	C301.020691,92.690788 297.257141,88.587555 293.177948,88.051804 
	C289.161774,87.524330 285.903900,89.933830 284.689850,94.755310 
	C284.131653,96.972229 283.997070,99.358696 284.065521,101.656509 
	C284.183044,105.602379 285.075836,109.403839 289.143280,111.186096 
	C293.113892,112.925934 296.175232,110.878868 299.463562,107.627838 
z"/>
<path fill="#F6F6F6" opacity="1.000000" stroke="none" 
	d="
M115.818039,120.014267 
	C113.034447,120.014732 110.713623,120.014732 108.264572,120.014732 
	C108.067894,118.721588 107.900444,117.620621 107.713821,116.393623 
	C107.250298,116.517090 106.710304,116.513786 106.371796,116.773300 
	C101.721832,120.338028 96.520477,121.419418 90.839645,120.213181 
	C85.053368,118.984550 82.048950,115.485367 81.517433,109.508369 
	C81.005592,103.752655 83.473518,99.310570 89.251389,97.730995 
	C95.115028,96.127975 101.250183,95.518127 107.405800,94.449104 
	C107.609047,91.235046 107.016876,88.110786 103.147141,87.315674 
	C99.495430,86.565369 96.351204,87.312248 94.570633,91.381866 
	C94.094719,92.469589 91.817078,93.055618 90.272720,93.316689 
	C88.343483,93.642807 86.317230,93.395050 84.429016,93.395050 
	C82.392960,87.223015 87.145309,81.180260 92.935333,80.374550 
	C98.440567,79.608475 104.204353,79.598305 109.716263,80.316444 
	C114.483612,80.937576 117.997192,84.426796 118.259361,89.462921 
	C118.751755,98.921745 118.714561,108.411079 118.700150,117.887421 
	C118.699066,118.597435 117.124107,119.305054 115.818039,120.014267 
M100.112694,102.192924 
	C98.989281,102.498795 97.417221,102.446228 96.830360,103.180779 
	C95.337456,105.049393 94.285172,107.270035 93.056519,109.349770 
	C95.077599,110.410316 97.123375,112.408607 99.115128,112.356148 
	C105.167290,112.196732 108.072014,107.986275 106.892456,102.073318 
	C104.916016,102.073318 102.932114,102.073318 100.112694,102.192924 
z"/>
<path fill="#F8F8F8" opacity="1.000000" stroke="none" 
	d="
M390.075867,102.268227 
	C386.927216,102.272736 384.266388,102.271332 381.605652,102.289383 
	C381.279785,102.291603 380.954651,102.398087 380.309326,102.513412 
	C379.902313,106.931984 381.696289,110.360535 385.854401,111.641136 
	C389.729584,112.834625 393.703491,112.736374 396.122162,108.130074 
	C396.695740,107.037682 398.900177,106.511063 400.436829,106.285728 
	C402.533295,105.978294 404.708679,106.209030 408.339325,106.209030 
	C406.700195,109.870964 406.071198,113.339973 404.032867,115.442993 
	C397.909973,121.760269 389.897339,121.475395 382.098480,119.848572 
	C375.634064,118.500107 371.459198,114.229553 369.537018,107.712479 
	C365.961273,95.588966 370.481476,83.953903 380.298706,80.544785 
	C396.322815,74.980278 409.372742,85.162712 407.267517,102.268234 
	C401.758179,102.268234 396.160950,102.268234 390.075867,102.268227 
M386.642700,94.965553 
	C389.719055,94.965553 392.795410,94.965553 396.024506,94.965553 
	C395.861603,89.629761 392.762146,87.821037 388.636444,87.425827 
	C384.255280,87.006134 381.409149,89.656654 380.329681,94.967049 
	C382.174377,94.967049 383.949066,94.967049 386.642700,94.965553 
z"/>
<path fill="#F7F7F7" opacity="1.000000" stroke="none" 
	d="
M340.684906,110.989243 
	C346.161255,109.565216 348.898224,106.770218 348.526459,100.983398 
	C348.091095,94.205986 348.424622,87.379181 348.424622,80.236099 
	C352.278046,80.236099 355.825806,80.236099 359.648987,80.236099 
	C359.648987,93.314270 359.648987,106.378197 359.648987,119.727768 
	C356.153046,119.727768 352.728699,119.727768 349.084839,119.727768 
	C348.960419,118.520195 348.827148,117.226730 348.682190,115.819725 
	C348.227020,115.904388 347.714355,115.888000 347.314545,116.092339 
	C344.825287,117.364578 342.498962,119.263191 339.865112,119.891411 
	C328.634613,122.570114 322.182861,117.321968 322.058044,105.652359 
	C321.970795,97.495308 322.053284,89.336388 322.081757,81.178375 
	C322.082764,80.888702 322.316925,80.599861 322.532013,80.104126 
	C325.891724,80.104126 329.330597,80.104126 333.414276,80.104126 
	C333.414276,87.728180 333.307678,95.320572 333.447632,102.908401 
	C333.562042,109.113594 334.960968,110.610634 340.684906,110.989243 
z"/>
<path fill="#F8F8F8" opacity="1.000000" stroke="none" 
	d="
M493.390503,86.502060 
	C499.912018,78.765610 508.109283,77.979095 516.754028,80.198067 
	C524.452332,82.174103 528.725586,87.809738 529.746704,95.523445 
	C530.861694,103.945946 529.903259,112.098068 521.974670,117.164993 
	C514.385071,122.015244 506.089966,121.961700 498.317810,117.718658 
	C490.890625,113.663910 488.955658,106.333839 489.726959,98.507706 
	C490.119141,94.528008 491.970062,90.692070 493.390503,86.502060 
M508.766846,111.760109 
	C511.454590,110.461143 515.240784,109.863083 516.607483,107.721184 
	C519.705872,102.865608 519.342957,97.144966 516.733887,91.989967 
	C514.560486,87.695801 508.291107,86.774483 504.598816,89.819412 
	C498.337433,94.983017 500.439331,108.461906 508.766846,111.760109 
z"/>
<path fill="#F7F7F7" opacity="1.000000" stroke="none" 
	d="
M671.958252,91.986420 
	C676.422180,93.456566 680.561768,94.652855 684.639465,96.032021 
	C691.928772,98.497429 694.647949,102.421089 694.017517,109.302376 
	C693.484863,115.116135 689.087830,119.359482 682.190063,120.033997 
	C678.096741,120.434280 673.879761,120.464470 669.804749,119.961662 
	C662.580078,119.070251 659.031616,114.703133 658.968140,107.000046 
	C660.584045,107.000046 662.200073,107.000046 663.816162,107.000046 
	C665.313782,107.000046 666.811340,107.000046 668.626038,107.000046 
	C670.330872,111.924271 674.053040,113.814491 679.006104,112.561539 
	C680.435242,112.200027 682.114990,110.472115 682.470154,109.065285 
	C682.700256,108.153618 680.976013,106.090927 679.710754,105.583778 
	C676.030884,104.108833 672.092896,103.294136 668.344360,101.970634 
	C661.771118,99.649849 658.770935,95.535904 659.259277,89.904320 
	C659.724670,84.537460 663.234131,80.939888 670.050598,80.007637 
	C674.263245,79.431480 678.693909,79.457428 682.901978,80.069839 
	C689.368774,81.010963 692.422424,85.064919 692.719604,92.330650 
	C690.278625,92.330650 687.813782,92.578102 685.435791,92.230873 
	C684.162659,92.044975 682.701721,91.089409 681.910095,90.040169 
	C679.346863,86.642700 676.103149,86.322113 672.667847,87.930687 
	C671.882874,88.298225 671.937744,90.459335 671.958252,91.986420 
z"/>
<path fill="#F8F8F8" opacity="1.000000" stroke="none" 
	d="
M123.288040,119.508102 
	C126.632072,113.877113 129.926697,108.481758 133.682663,103.429375 
	C136.010025,100.298714 136.314774,97.910156 133.803848,94.678139 
	C130.386719,90.279678 127.527145,85.448051 123.613144,79.579689 
	C128.802689,80.008667 133.558289,79.097748 136.490936,80.998871 
	C139.629959,83.033798 141.051529,87.718010 143.463074,91.636482 
	C144.384232,90.409294 145.423813,89.535065 145.806824,88.432716 
	C148.688797,80.137878 154.671829,78.296333 163.002731,80.437096 
	C159.737717,85.364967 156.624374,90.379921 153.173813,95.150978 
	C151.166595,97.926353 150.819351,100.045654 153.066315,103.003319 
	C157.033310,108.225029 160.495087,113.830566 164.034729,119.077362 
	C151.247986,124.606819 148.702942,113.614883 143.527328,106.474335 
	C142.376160,108.244034 141.205078,109.520180 140.624496,111.024261 
	C137.496536,119.127563 131.542511,121.549019 123.288040,119.508102 
z"/>
<path fill="#FAFAFA" opacity="1.000000" stroke="none" 
	d="
M228.228882,109.340126 
	C228.200897,94.440392 228.200897,79.977661 228.200897,65.208984 
	C231.847488,65.208984 235.394562,65.208984 239.340057,65.208984 
	C239.340057,77.805244 239.309448,90.252098 239.351639,102.698708 
	C239.376556,110.050720 239.615601,110.283150 246.543411,111.465294 
	C246.618073,112.058235 246.758774,112.699730 246.768707,113.343254 
	C246.799301,115.323456 246.779861,117.304436 246.779861,119.226700 
	C236.548996,121.710716 230.580322,118.608482 228.228882,109.340126 
z"/>
<path fill="#F1F1F1" opacity="1.000000" stroke="none" 
	d="
M263.910919,105.991829 
	C263.910919,110.785934 263.910919,115.082039 263.910919,119.699791 
	C260.064056,119.699791 256.501526,119.699791 252.651276,119.699791 
	C252.651276,106.652534 252.651276,93.593529 252.651276,80.201569 
	C256.252472,80.201569 259.805573,80.201569 263.910919,80.201569 
	C263.910919,88.648254 263.910919,97.071045 263.910919,105.991829 
z"/>
<path fill="#F5F5F5" opacity="1.000000" stroke="none" 
	d="
M254.905899,64.825813 
	C258.909485,63.741737 262.723907,63.564785 263.894470,67.806854 
	C264.419556,69.709785 262.868073,73.901749 261.546661,74.235542 
	C258.918762,74.899368 254.953217,74.558876 253.087311,72.896736 
	C250.574722,70.658546 251.227814,67.123581 254.905899,64.825813 
z"/>
<path fill="#080808" opacity="1.000000" stroke="none" 
	d="
M623.886658,100.911537 
	C623.311707,95.655952 624.217224,91.561310 629.036316,89.170631 
	C633.895264,86.760201 638.794861,88.664314 639.793457,94.043800 
	C640.472412,97.701759 640.405273,101.669952 639.788208,105.351334 
	C639.087952,109.528946 636.106873,112.267403 631.639648,111.630478 
	C627.412292,111.027763 624.382385,108.514618 623.900818,103.850723 
	C623.815857,103.028252 623.887390,102.189636 623.886658,100.911537 
z"/>
<path fill="#080808" opacity="1.000000" stroke="none" 
	d="
M299.197205,107.917244 
	C296.175232,110.878868 293.113892,112.925934 289.143280,111.186096 
	C285.075836,109.403839 284.183044,105.602379 284.065521,101.656509 
	C283.997070,99.358696 284.131653,96.972229 284.689850,94.755310 
	C285.903900,89.933830 289.161774,87.524330 293.177948,88.051804 
	C297.257141,88.587555 301.020691,92.690788 300.864441,97.056717 
	C300.737823,100.592606 299.955200,104.105019 299.197205,107.917244 
z"/>
<path fill="#101010" opacity="1.000000" stroke="none" 
	d="
M100.530449,102.133118 
	C102.932114,102.073318 104.916016,102.073318 106.892456,102.073318 
	C108.072014,107.986275 105.167290,112.196732 99.115128,112.356148 
	C97.123375,112.408607 95.077599,110.410316 93.056519,109.349777 
	C94.285172,107.270035 95.337456,105.049393 96.830360,103.180779 
	C97.417221,102.446228 98.989281,102.498795 100.530449,102.133118 
z"/>
<path fill="#0D0D0D" opacity="1.000000" stroke="none" 
	d="
M386.183228,94.966301 
	C383.949066,94.967049 382.174377,94.967049 380.329681,94.967049 
	C381.409149,89.656654 384.255280,87.006134 388.636444,87.425827 
	C392.762146,87.821037 395.861603,89.629761 396.024506,94.965553 
	C392.795410,94.965553 389.719055,94.965553 386.183228,94.966301 
z"/>
<path fill="#090909" opacity="1.000000" stroke="none" 
	d="
M508.385193,111.706551 
	C500.439331,108.461906 498.337433,94.983017 504.598816,89.819412 
	C508.291107,86.774483 514.560486,87.695801 516.733887,91.989967 
	C519.342957,97.144966 519.705872,102.865608 516.607483,107.721184 
	C515.240784,109.863083 511.454590,110.461143 508.385193,111.706551 
z"/>
</svg>